# xmcd
#
# Track frame offsets:
#	151
#	17236
#	29807
#	41881
#	57092
#	72173
#	83764
#	110830
#	121450
#	135753
#	152039
#	159770
#	177492
#	195458
#	216053
#	234943
#	246287
#
# Disc length: 3481 seconds
#
# Revision: 0
# Processed by: cddbd v1.5.1PL0 Copyright (c) Steve Scherf et al.
# Submitted via: dBpowerAMP V4.0
#
DISCID=e50d9711
DTITLE=Sam Mitchell - Resonating
DYEAR=1900
DGENRE=Blues
TTITLE0=Rufugee Blues
TTITLE1=Bues in The Bottle
TTITLE2=Tet There Be Smoke
TTITLE3=Monkey In The Head
TTITLE4=Unfinished Bussiness
TTITLE5=Packing Pallets
TTITLE6=Solar Skates
TTITLE7=Same Olé Blues
TTITLE8=Talkin' Mr Johnson
TTITLE9=Let's Split
TTITLE10=Little Peer
TTITLE11=Parchman Farm
TTITLE12=Kokomo
TTITLE13=Drifter
TTITLE14=Jiddy Jiddy Man
TTITLE15=Studio 51
TTITLE16=Hey Alexis
EXTD=Guido
EXTT0=
EXTT1=
EXTT2=
EXTT3=
EXTT4=
EXTT5=
EXTT6=
EXTT7=
EXTT8=
EXTT9=
EXTT10=
EXTT11=
EXTT12=
EXTT13=
EXTT14=
EXTT15=
EXTT16=
PLAYORDER=
